<?xml version="1.0" encoding="UTF-8"?>
<svg version="1.1" xmlns="http://www.w3.org/2000/svg" width="25" height="24">
<path d="M0 0 C2.96175123 0.61277612 4.38058783 1.25372522 7 3 C10.63939932 2.68269476 10.63939932 2.68269476 14 2 C13.9127395 4.25071906 13.80455885 6.50063388 13.6875 8.75 C13.62949219 10.00296875 13.57148438 11.2559375 13.51171875 12.546875 C12.99544099 16.03076463 12.3746744 17.47889796 10 20 C10.66 21.32 11.32 22.64 12 24 C11.05125 23.814375 10.1025 23.62875 9.125 23.4375 C6.10131207 22.71313368 6.10131207 22.71313368 4 24 C2.00045254 24.04254356 -0.00041636 24.04080783 -2 24 C-2.99 24 -3.98 24 -5 24 C-5.99 24 -6.98 24 -8 24 C-7.6596875 22.8553125 -7.6596875 22.8553125 -7.3125 21.6875 C-7.209375 20.800625 -7.10625 19.91375 -7 19 C-7.474375 18.566875 -7.94875 18.13375 -8.4375 17.6875 C-10 16 -10 16 -10.125 12.1875 C-10.09664062 11.49011719 -10.06828125 10.79273438 -10.0390625 10.07421875 C-9.98693864 7.30644153 -10.45861096 4.70694519 -11 2 C-10.0925 2.37125 -9.185 2.7425 -8.25 3.125 C-5.14234448 4.27839326 -5.14234448 4.27839326 -2.6875 3.25 C-0.85705945 2.09122685 -0.85705945 2.09122685 0 0 Z " fill="#4E3727" transform="translate(11,0)"/>
<path d="M0 0 C2.96175123 0.61277612 4.38058783 1.25372522 7 3 C10.63939932 2.68269476 10.63939932 2.68269476 14 2 C14 2.66 14 3.32 14 4 C13.34 4 12.68 4 12 4 C12 4.66 12 5.32 12 6 C11.34 6 10.68 6 10 6 C9.67 6.99 9.34 7.98 9 9 C6 11 6 11 3 11 C2.01 12.485 2.01 12.485 1 14 C-7.44646925 7.84965831 -7.44646925 7.84965831 -11 4 C-10.67 3.34 -10.34 2.68 -10 2 C-9.2575 2.37125 -8.515 2.7425 -7.75 3.125 C-5.07961582 4.27194937 -5.07961582 4.27194937 -2.75 3.25 C-0.85703431 2.10397505 -0.85703431 2.10397505 0 0 Z " fill="#816C3E" transform="translate(11,0)"/>
<path d="M0 0 C2.5 1.375 2.5 1.375 5 3 C5 3.66 5 4.32 5 5 C5.66 5.33 6.32 5.66 7 6 C6.34 6.66 5.68 7.32 5 8 C4.01 8 3.02 8 2 8 C1.01 9.485 1.01 9.485 0 11 C-2.31 9.35 -4.62 7.7 -7 6 C-6.67 5.34 -6.34 4.68 -6 4 C-5.01 4.33 -4.02 4.66 -3 5 C-2.690625 4.360625 -2.38125 3.72125 -2.0625 3.0625 C-1 1 -1 1 0 0 Z " fill="#AEADA4" transform="translate(12,3)"/>
<path d="M0 0 C0.66 0 1.32 0 2 0 C1.88512252 1.58409994 1.75765492 3.16728963 1.625 4.75 C1.55539063 5.63171875 1.48578125 6.5134375 1.4140625 7.421875 C0.99856731 10.00892053 0.1906008 11.69623586 -1 14 C-1.15811388 17.05270463 -1.15811388 17.05270463 0 20 C-1.65 19.67 -3.3 19.34 -5 19 C-5.33 17.35 -5.66 15.7 -6 14 C-5.34 14 -4.68 14 -4 14 C-3.34 10.04 -2.68 6.08 -2 2 C-1.34 2 -0.68 2 0 2 C0 1.34 0 0.68 0 0 Z " fill="#734C28" transform="translate(23,4)"/>
<path d="M0 0 C0.33 0 0.66 0 1 0 C1.25 6.625 1.25 6.625 -1 10 C-1.66 10 -2.32 10 -3 10 C-2.67 10.99 -2.34 11.98 -2 13 C-3.76529621 15.22984785 -4.65233722 15.93915901 -7.5 16.4375 C-10 16 -10 16 -11.8125 14 C-12.204375 13.34 -12.59625 12.68 -13 12 C-10.66666667 12 -8.33333333 12 -6 12 C-5.34 10.68 -4.68 9.36 -4 8 C-3.34 8 -2.68 8 -2 8 C-1.855625 6.865625 -1.71125 5.73125 -1.5625 4.5625 C-1 1 -1 1 0 0 Z " fill="#3D200F" transform="translate(20,8)"/>
<path d="M0 0 C-0.25561323 2.3431213 -0.59270772 4.67843403 -1 7 C-1.99 7.495 -1.99 7.495 -3 8 C-3.66 8.99 -4.32 9.98 -5 11 C-6 10 -6 10 -6.09765625 7.93359375 C-6.08605469 7.10988281 -6.07445312 6.28617188 -6.0625 5.4375 C-6.05347656 4.61121094 -6.04445313 3.78492188 -6.03515625 2.93359375 C-6.02355469 2.29550781 -6.01195312 1.65742188 -6 1 C-1.125 0 -1.125 0 0 0 Z " fill="#473D33" transform="translate(19,9)"/>
<path d="M0 0 C1.921875 0.6484375 1.921875 0.6484375 4 2 C4.828125 4.6015625 4.828125 4.6015625 5.25 7.625 C5.39953125 8.62789062 5.5490625 9.63078125 5.703125 10.6640625 C5.80109375 11.43492188 5.8990625 12.20578125 6 13 C3.525 12.01 3.525 12.01 1 11 C1.020625 9.9275 1.04125 8.855 1.0625 7.75 C1.0142016 4.85209576 0.86844115 2.71387859 0 0 Z " fill="#825830" transform="translate(0,4)"/>
<path d="M0 0 C0.66 0.33 1.32 0.66 2 1 C1.01 2.32 0.02 3.64 -1 5 C-0.34 6.32 0.32 7.64 1 9 C-0.65 8.67 -2.3 8.34 -4 8 C-4.33 6.35 -4.66 4.7 -5 3 C-2.625 1.4375 -2.625 1.4375 0 0 Z " fill="#6A3613" transform="translate(22,15)"/>
<path d="M0 0 C3.51855159 1.40742064 4.38612834 2.66466523 6 6 C6.99 6.33 7.98 6.66 9 7 C8.67 7.66 8.34 8.32 8 9 C6 9 4 9 2 9 C2.226875 8.2575 2.45375 7.515 2.6875 6.75 C3.29476698 3.94085007 3.29476698 3.94085007 1.5625 1.6875 C1.046875 1.130625 0.53125 0.57375 0 0 Z " fill="#74370F" transform="translate(1,15)"/>
<path d="M0 0 C0.66 0.33 1.32 0.66 2 1 C2 1.66 2 2.32 2 3 C2.66 3.33 3.32 3.66 4 4 C3.34 4.66 2.68 5.32 2 6 C-0.125 5.625 -0.125 5.625 -2 5 C-2 3.68 -2 2.36 -2 1 C-1.34 0.67 -0.68 0.34 0 0 Z " fill="#9F9D95" transform="translate(15,5)"/>
<path d="M0 0 C0.9075 0.350625 1.815 0.70125 2.75 1.0625 C5.87758436 1.96468779 7.05208081 2.13381507 10 1 C9.67 1.66 9.34 2.32 9 3 C8.34 3 7.68 3 7 3 C6.67 3.99 6.34 4.98 6 6 C4 6 4 6 1.875 4.125 C0 2 0 2 0 0 Z " fill="#C4A656" transform="translate(0,2)"/>
<path d="M0 0 C2.69082872 0.17635452 5.32851446 0.61835921 8 1 C7.67 1.99 7.34 2.98 7 4 C5.35 4.33 3.7 4.66 2 5 C1.01 3.68 0.02 2.36 -1 1 C-0.67 0.67 -0.34 0.34 0 0 Z " fill="#1B0D08" transform="translate(8,19)"/>
<path d="M0 0 C2.97 1.98 2.97 1.98 6 4 C3 6 3 6 0 6 C0 4.02 0 2.04 0 0 Z " fill="#635546" transform="translate(6,9)"/>
<path d="M0 0 C0.33 0.66 0.66 1.32 1 2 C0.34 2 -0.32 2 -1 2 C-1 2.66 -1 3.32 -1 4 C-1.66 4 -2.32 4 -3 4 C-3.33 4.99 -3.66 5.98 -4 7 C-4.33 7 -4.66 7 -5 7 C-5 5.35 -5 3.7 -5 2 C-3.35 1.34 -1.7 0.68 0 0 Z " fill="#CBAA58" transform="translate(24,2)"/>
</svg>
